<svg xmlns="http://www.w3.org/2000/svg" viewBox="0 0 432 419"><defs><style>.cls-1{fill:#302;}.cls-2{fill:#ff3efc;}</style></defs><g id="Layer_2" data-name="Layer 2"><g id="Layer_1-2" data-name="Layer 1"><rect class="cls-1" width="432" height="419" rx="96.06"/><rect class="cls-1" x="20" y="20" width="392" height="379" rx="76.06"/><path class="cls-2" d="M171.38,198.86l50.5,83.33a1.75,1.75,0,0,1-.29,2.44,1.77,1.77,0,0,1-1,.37H184.51c-2.29,0-3.57-.76-4.33-2.3C169,262.81,157.73,242.91,146.25,222h-.1c-10.21,20.42-21.44,41.08-32.14,61a3.43,3.43,0,0,1-3.58,2H76.12c-1.78,0-1.78-1.54-1-2.55l49-81.12-48-80.78A1.53,1.53,0,0,1,77.4,118h36c1.77,0,2.53.25,3.29,2,10.12,20,22,40,32.41,60h.25c9.87-20.26,21-39.76,31.39-60,.76-1.26,1.27-2,3.55-2h33c1.78,0,2,1.28,1,2.8Z"/><path class="cls-2" d="M225.65,222.09c0-36.33,26.95-66.81,73-66.81,2,0,4.53.25,8.31.5v-50a1.61,1.61,0,0,1,1.41-1.78,2,2,0,0,1,.35,0h31.73c1.26,0,1.51.51,1.51,1.53V255.62a143.51,143.51,0,0,0,1,18.54c0,1.27-.26,1.78-1.76,2.29a125.64,125.64,0,0,1-49.58,10.16C254.36,286.61,225.65,265.26,225.65,222.09ZM307,186.34a26.68,26.68,0,0,0-9.4-1.27c-19.56,0-36.32,11.94-36.32,35.57,0,25.15,14.48,36.07,33.78,36.07,4.32,0,8.39-.25,11.94-1.53Z"/></g></g></svg>