<svg id="Layer_1" data-name="Layer 1" xmlns="http://www.w3.org/2000/svg" xmlns:xlink="http://www.w3.org/1999/xlink" viewBox="0 0 692.93 524.45"><defs><style>.cls-1,.cls-8{fill:#fff;}.cls-1{stroke:#000;stroke-miterlimit:10;stroke-width:3px;}.cls-2{fill:#271302;}.cls-3{fill:#ff7c01;}.cls-4{fill:#302;}.cls-5{fill:#ff3efc;}.cls-6{fill:#1572b6;}.cls-7{fill:#33a9dc;}.cls-9{fill:#ebebeb;}.cls-10{fill:#e44f26;}.cls-11{fill:#f1662a;}.cls-12{fill:#f5de19;}.cls-13{fill:url(#radial-gradient);}.cls-14{fill:#6280b6;}.cls-15{fill:#000004;}.cls-16{fill-rule:evenodd;}</style><radialGradient id="radial-gradient" cx="498.71" cy="1365.29" r="105.8" gradientTransform="matrix(1, 0, 0, -1, 68.27, 1528.14)" gradientUnits="userSpaceOnUse"><stop offset="0" stop-color="#fff"/><stop offset="0.5" stop-color="#4c6b96"/><stop offset="1" stop-color="#231f20"/></radialGradient></defs><line class="cls-1" x1="96.25" y1="42.95" x2="607.25" y2="510.95"/><line class="cls-1" x1="607.25" y1="42.95" x2="96.25" y2="510.95"/><line class="cls-1" x1="57.75" y1="276.95" x2="621.75" y2="276.95"/><path class="cls-1" d="M584.35,341.91" transform="translate(-245.25 -76.55)"/><rect class="cls-2" x="298.75" width="129.34" height="125.45" rx="28.76"/><rect class="cls-2" x="304.74" y="5.99" width="117.37" height="113.48" rx="22.77"/><path class="cls-3" d="M589.41,149.91,585.82,161a.8.8,0,0,1-.82.59h-9c-.53,0-.69-.3-.6-.76L590.59,117a14.18,14.18,0,0,0,.76-4.63.51.51,0,0,1,.46-.53H604c.38,0,.53.07.6.45l17.22,48.57c.15.38.08.68-.38.68h-10a.75.75,0,0,1-.82-.52L606.7,149.9Zm14.66-9.29c-1.53-5.05-4.6-14.32-6.05-19.76h-.08c-1.22,5.13-4,13.57-6,19.76Z" transform="translate(-245.25 -76.55)"/><path class="cls-3" d="M626.39,114a5.7,5.7,0,0,1,5.93-5.86,5.52,5.52,0,0,1,5.86,5.86,5.59,5.59,0,0,1-5.93,5.93A5.53,5.53,0,0,1,626.39,114Zm.55,10.73c0-.38.15-.6.59-.6h9.29c.46,0,.59.15.59.6V161.2c0,.45-.07.68-.67.68h-9c-.53,0-.75-.23-.75-.68Z" transform="translate(-245.25 -76.55)"/><g id="Layer_2" data-name="Layer 2"><g id="Layer_1-2" data-name="Layer 1-2"><rect class="cls-4" x="287.75" y="397.45" width="130.94" height="127" rx="29.12"/><rect class="cls-4" x="293.81" y="403.51" width="118.82" height="114.88" rx="23.05"/><path class="cls-5" d="M585,534.27l15.31,25.26a.53.53,0,0,1-.09.74.48.48,0,0,1-.3.11H589a1.28,1.28,0,0,1-1.31-.69c-3.39-6-6.81-12.06-10.28-18.4h0c-3.1,6.19-6.5,12.45-9.75,18.49a1,1,0,0,1-1.08.6h-10.4c-.54,0-.54-.46-.3-.77L570.71,535l-14.55-24.48a.46.46,0,0,1,.39-.77h10.91c.53,0,.77.07,1,.6,3.06,6.06,6.66,12.13,9.82,18.19h.07c3-6.14,6.37-12,9.52-18.19a1,1,0,0,1,1.08-.6h10c.54,0,.6.38.3.84Z" transform="translate(-245.25 -76.55)"/><path class="cls-5" d="M601.41,541.32c0-11,8.17-20.25,22.12-20.25.61,0,1.38.07,2.52.15V506.06a.49.49,0,0,1,.43-.54h9.72c.39,0,.46.16.46.47v45.49a44,44,0,0,0,.3,5.62c0,.38-.07.54-.53.69a37.89,37.89,0,0,1-15,3.08C610.11,560.87,601.41,554.4,601.41,541.32Zm24.64-11a7.86,7.86,0,0,0-2.85-.38c-5.93,0-11,3.61-11,10.78,0,7.62,4.39,10.93,10.24,10.93a11,11,0,0,0,3.62-.46Z" transform="translate(-245.25 -76.55)"/></g></g><polygon class="cls-6" points="80.08 231.96 72.46 146.45 156.23 146.45 148.6 231.94 114.3 241.45 80.08 231.96"/><polygon class="cls-7" points="114.15 233.98 141.87 226.29 148.39 153.24 114.15 153.24 114.15 233.98"/><polygon class="cls-8" points="114.15 183.77 127.3 183.77 128.21 173.59 114.15 173.59 114.15 163.42 114.18 163.42 139.47 163.42 139.22 166.12 136.75 193.95 114.15 193.95 114.15 183.77"/><polygon class="cls-9" points="114.15 212.24 114.1 212.26 102.42 209.1 101.68 200.74 96 200.74 91.15 200.74 92.62 217.2 114.1 223.17 114.15 223.15 114.15 212.24"/><polygon class="cls-8" points="127.11 193.95 125.84 207.99 114.15 211.15 114.15 222.06 135.65 216.1 135.81 214.33 137.63 193.95 127.11 193.95"/><polygon class="cls-9" points="114.15 163.42 114.15 169.74 114.15 173.57 114.15 173.59 89.6 173.59 89.6 173.59 89.56 173.59 89.36 171.31 88.89 166.15 88.65 163.42 114.15 163.42"/><polygon class="cls-9" points="114.15 183.77 114.15 190.09 114.15 193.93 114.15 193.95 102.99 193.95 102.99 193.95 102.95 193.95 102.75 191.66 102.29 186.5 102.05 183.77 114.15 183.77"/><polygon class="cls-10" points="555.9 410.65 548.04 322.45 634.45 322.45 626.58 410.64 591.19 420.45 555.9 410.65"/><polygon class="cls-11" points="592.54 412.74 621.13 404.81 627.86 329.45 592.54 329.45 592.54 412.74"/><polygon class="cls-9" points="592.54 360.95 578.97 360.95 578.03 350.45 592.54 350.45 592.54 339.95 592.5 339.95 566.42 339.95 566.67 342.75 569.23 371.45 592.54 371.45 592.54 360.95"/><polygon class="cls-9" points="592.54 390.32 592.49 390.33 580.44 387.08 579.67 378.45 573.81 378.45 568.81 378.45 570.33 395.43 592.49 401.59 592.54 401.57 592.54 390.32"/><polygon class="cls-8" points="592.54 360.95 592.54 371.45 605.47 371.45 604.25 385.07 592.54 388.23 592.54 399.15 614.06 393.19 614.22 391.41 616.68 363.77 616.94 360.95 614.11 360.95 592.54 360.95"/><polygon class="cls-8" points="592.54 339.95 592.54 346.47 592.54 350.43 592.54 350.45 617.86 350.45 617.86 350.45 617.9 350.45 618.11 348.09 618.59 342.77 618.84 339.95 592.54 339.95"/><rect class="cls-12" x="59.75" y="314.45" width="108" height="108"/><path d="M377.55,475.38a11.07,11.07,0,0,0,10,6.17c4.2,0,6.89-2.11,6.89-5,0-3.47-2.76-4.71-7.39-6.74l-2.54-1.08c-7.33-3.12-12.19-7-12.19-15.29,0-7.61,5.79-13.41,14.87-13.41a15,15,0,0,1,14.43,8.13l-7.94,5.07a6.88,6.88,0,0,0-6.51-4.35,4.4,4.4,0,0,0-4.83,3.95,2.69,2.69,0,0,0,0,.4c0,3,1.89,4.28,6.24,6.17l2.54,1.09c8.63,3.7,13.5,7.46,13.5,15.94,0,9.14-7.18,14.14-16.81,14.14a19.49,19.49,0,0,1-18.5-10.38Zm-35.85.87c1.59,2.83,3,5.22,6.53,5.22,3.33,0,5.44-1.3,3.06-6.37v-34h11.57v34.09c.95,10.51-5.22,15.29-14.2,15.29a15.76,15.76,0,0,1-15.23-9.26Z" transform="translate(-245.25 -76.55)"/><ellipse class="cls-13" cx="599.18" cy="190.34" rx="80.57" ry="42.39"/><ellipse class="cls-14" cx="599.18" cy="190.34" rx="77.42" ry="39.24"/><path class="cls-8" d="M860.11,279.55,864,259.78a10.08,10.08,0,0,0-2.14-9.89c-3.34-2.37-11.51-5.25-11.51-5.25h-6.66l2-10a1.28,1.28,0,0,0-1-1.5,1,1,0,0,0-.24,0h-9a1.25,1.25,0,0,0-1.23,1l-4.17,21.41a12,12,0,0,0-2.8-6.18,16.31,16.31,0,0,0-12.9-4.74H796.75a1.27,1.27,0,0,0-1.24,1l-8.45,43.49a1.29,1.29,0,0,0,1,1.51,1,1,0,0,0,.24,0h9.29a1.25,1.25,0,0,0,1.24-1l2-10.49h6.87s6.1,1.1,9,.26a17.79,17.79,0,0,0,6.62-4,20.62,20.62,0,0,0,3.91-4.86l-1.65,8.49a1.26,1.26,0,0,0,1,1.48c.08,0,.24,4.36.24,4.36h9.2s1.13-4.77,1.24-5.36l4.53-23.42h6.3c2.68.11,3.45.64,3.68.87s.58,1,.14,3.28l-3.65,18.79a1.26,1.26,0,0,0,1,1.47c.08,0,.24,4.36.24,4.36h9.32S860,280.13,860.11,279.55Zm-42.56-16.31a10.05,10.05,0,0,1-3.23,6.28c-2.26,1.41-4.91,2.06-7.56,3.9h-4.1l3-17.27h5.3c3.9,0,5.46.8,6.1,1.49A6.82,6.82,0,0,1,817.55,263.24Z" transform="translate(-245.25 -76.55)"/><path class="cls-8" d="M899.56,249.4a16.41,16.41,0,0,0-13-4.76H869a1.25,1.25,0,0,0-1.23,1l-8.45,43.49a1.28,1.28,0,0,0,1,1.51,1,1,0,0,0,.24,0h9.33a1.24,1.24,0,0,0,1.23-1l2-10.49h6.59A30.1,30.1,0,0,0,889,278a17.94,17.94,0,0,0,6.78-4.06,20.24,20.24,0,0,0,6.35-11.36A14.84,14.84,0,0,0,899.56,249.4Zm-9.79,13.84a10.05,10.05,0,0,1-3.23,6.28c-2.26,1.41-4.92,2.06-7.58,3.9h-4.09l3-17.27h5.3c3.89,0,5.46.79,6.09,1.49A6.79,6.79,0,0,1,889.77,263.24Z" transform="translate(-245.25 -76.55)"/><path class="cls-15" d="M810.91,256.14a9.16,9.16,0,0,1,6.82,1.89,7.46,7.46,0,0,1,.81,6.48,10.87,10.87,0,0,1-3.59,6.84,13.2,13.2,0,0,1-8.09,2.07h-5.47l3.36-17.27Zm-22.32,34.54h9l2.24-11.51h8.74a26.2,26.2,0,0,0,8-1,15.15,15.15,0,0,0,5.68-3.41,17.07,17.07,0,0,0,5.37-9.61,12.23,12.23,0,0,0-2.05-10.85,13.61,13.61,0,0,0-10.81-3.89h-18.3Z" transform="translate(-245.25 -76.55)"/><path class="cls-15" d="M834.93,238.89h9.45L842.1,250.4h8.72a14.76,14.76,0,0,1,9.83,2.48,8.24,8.24,0,0,1,1.62,8.06l-3.55,18.23h-9.1l3.46-17.79a4.83,4.83,0,0,0-.43-4.14,6.14,6.14,0,0,0-4.36-1.09h-7.61l-4.48,23h-9.12Z" transform="translate(-245.25 -76.55)"/><path class="cls-15" d="M883.13,256.14A9.16,9.16,0,0,1,890,258a7.46,7.46,0,0,1,.81,6.48,10.87,10.87,0,0,1-3.59,6.84,13.18,13.18,0,0,1-8.11,2.07H873.6L877,256.15Zm-22.32,34.54h9l2.24-11.51h8.74a26.2,26.2,0,0,0,8-1,15.15,15.15,0,0,0,5.68-3.41,17.07,17.07,0,0,0,5.37-9.61,12.2,12.2,0,0,0-2.05-10.85A13.61,13.61,0,0,0,887,250.4H868.64Z" transform="translate(-245.25 -76.55)"/><path class="cls-16" d="M625.17,338.38l0-.1-.09-.24a3.48,3.48,0,0,0-.72-1.07l-21.9-21.9a3.66,3.66,0,0,0-1.07-.72l-.23-.08-.11,0a3.72,3.72,0,0,0-.94-.18l-.11,0-.12,0H574.3a7.3,7.3,0,0,0-7.3,7.3v58.4a7.3,7.3,0,0,0,7.3,7.3h43.8a7.3,7.3,0,0,0,7.3-7.3V339.55a.5.5,0,0,0,0-.12l0-.11A3.81,3.81,0,0,0,625.17,338.38ZM599.85,321.3v18.25H618.1Zm-15.57,48.44a2.43,2.43,0,0,0-.54-1.72,5.76,5.76,0,0,0-1.92-1.23,9,9,0,0,1-3.67-2.49,5.45,5.45,0,0,1-1.12-3.4,5,5,0,0,1,1.52-3.8,5.81,5.81,0,0,1,6.65-.71,4.77,4.77,0,0,1,1.87,2.05,6.66,6.66,0,0,1,.66,3h-3.41a3.32,3.32,0,0,0-.51-2,1.69,1.69,0,0,0-1.46-.69,1.73,1.73,0,0,0-1.39.59,2.3,2.3,0,0,0-.5,1.57,2.06,2.06,0,0,0,.56,1.41,6.34,6.34,0,0,0,2,1.28,8.22,8.22,0,0,1,3.6,2.44,5.78,5.78,0,0,1,1.13,3.67,5.09,5.09,0,0,1-1.41,3.82,5.23,5.23,0,0,1-3.83,1.38,6.06,6.06,0,0,1-3-.75,5.33,5.33,0,0,1-2.12-2.14,6.79,6.79,0,0,1-.75-3.28h3.43a3.88,3.88,0,0,0,.57,2.36,2.21,2.21,0,0,0,1.86.73Q584.28,371.84,584.28,369.74Zm10.53,1.3,2.78-13.24h3.71l-4.76,18.25h-3.46l-4.73-18.25H592Zm17.38,2.19a5.81,5.81,0,0,0,2.26-1.69V365.1H610.8v5.76l-.93.22a2.59,2.59,0,0,1-1.56.43,2.33,2.33,0,0,1-2.16-1.1c-.43-.74-.65-1.92,1-3.54v-3.22c-1.64-1.54-1.43-2.67-1-3.38a2,2,0,0,1,1.9-1.06,2,2,0,0,1,1.59.62,5.85,5.85,0,0,1,.64,1.62h4.2a7.27,7.27,0,0,0-1.51-4.48,5,5,0,0,0-3.87-1.42,4.79,4.79,0,0,0-4.15,2,9.57,9.57,0,0,0-1.42,5.65v3.2a8.92,8.92,0,0,0,1.55,5.53,5.08,5.08,0,0,0,4.22,1.89A7.35,7.35,0,0,0,612.19,373.23Z" transform="translate(-245.25 -76.55)"/><line class="cls-1" y1="276.38" x2="692.93" y2="277.53"/></svg>