<svg id="Layer_1" data-name="Layer 1" xmlns="http://www.w3.org/2000/svg" xmlns:xlink="http://www.w3.org/1999/xlink" viewBox="0 0 565 516.45"><defs><style>.cls-1,.cls-8{fill:#fff;}.cls-1{stroke:#000;stroke-miterlimit:10;stroke-width:3px;}.cls-2{fill:#271302;}.cls-3{fill:#ff7c01;}.cls-4{fill:#302;}.cls-5{fill:#ff3efc;}.cls-6{fill:#1572b6;}.cls-7{fill:#33a9dc;}.cls-9{fill:#ebebeb;}.cls-10{fill:#e44f26;}.cls-11{fill:#f1662a;}.cls-12{fill:#f5de19;}.cls-13{fill:url(#radial-gradient);}.cls-14{fill:#6280b6;}.cls-15{fill:#000004;}.cls-16{fill-rule:evenodd;}</style><radialGradient id="radial-gradient" cx="455.71" cy="1353.29" r="105.8" gradientTransform="matrix(1, 0, 0, -1, -3.48, 1524.14)" gradientUnits="userSpaceOnUse"><stop offset="0" stop-color="#fff"/><stop offset="0.5" stop-color="#4c6b96"/><stop offset="1" stop-color="#231f20"/></radialGradient></defs><path class="cls-1" d="M584.35,341.91" transform="translate(-317 -80.55)"/><rect class="cls-2" x="213" width="129.34" height="125.45" rx="28.76"/><rect class="cls-2" x="218.99" y="5.99" width="117.37" height="113.48" rx="22.77"/><path class="cls-3" d="M575.41,153.91,571.82,165a.8.8,0,0,1-.82.59h-9c-.53,0-.69-.3-.6-.76L576.59,121a14.18,14.18,0,0,0,.76-4.63.51.51,0,0,1,.46-.53H590c.38,0,.53.07.6.45l17.22,48.57c.15.38.08.68-.38.68h-10a.75.75,0,0,1-.82-.52L592.7,153.9Zm14.66-9.29c-1.53-5.05-4.6-14.32-6.05-19.76h-.08c-1.22,5.13-4,13.57-6,19.76Z" transform="translate(-317 -80.55)"/><path class="cls-3" d="M612.39,118a5.7,5.7,0,0,1,5.93-5.86,5.52,5.52,0,0,1,5.86,5.86,5.59,5.59,0,0,1-5.93,5.93A5.53,5.53,0,0,1,612.39,118Zm.55,10.73c0-.38.15-.6.59-.6h9.29c.46,0,.59.15.59.6V165.2c0,.45-.07.68-.67.68h-9c-.53,0-.75-.23-.75-.68Z" transform="translate(-317 -80.55)"/><g id="Layer_2" data-name="Layer 2"><g id="Layer_1-2" data-name="Layer 1-2"><rect class="cls-4" x="217" y="389.45" width="130.94" height="127" rx="29.12"/><rect class="cls-4" x="223.06" y="395.51" width="118.82" height="114.88" rx="23.05"/><path class="cls-5" d="M586,530.27l15.31,25.26a.53.53,0,0,1-.09.74.48.48,0,0,1-.3.11H590a1.28,1.28,0,0,1-1.31-.69c-3.39-6-6.81-12.06-10.28-18.4h0c-3.1,6.19-6.5,12.45-9.75,18.49a1,1,0,0,1-1.08.6h-10.4c-.54,0-.54-.46-.3-.77L571.71,531l-14.55-24.48a.46.46,0,0,1,.39-.77h10.91c.53,0,.77.07,1,.6,3.06,6.06,6.66,12.13,9.82,18.19h.07c3-6.14,6.37-12,9.52-18.19a1,1,0,0,1,1.08-.6h10c.54,0,.6.38.3.84Z" transform="translate(-317 -80.55)"/><path class="cls-5" d="M602.41,537.32c0-11,8.17-20.25,22.12-20.25.61,0,1.38.07,2.52.15V502.06a.49.49,0,0,1,.43-.54h9.72c.39,0,.46.16.46.47v45.49a44,44,0,0,0,.3,5.62c0,.38-.07.54-.53.69a37.89,37.89,0,0,1-15,3.08C611.11,556.87,602.41,550.4,602.41,537.32Zm24.64-11a7.86,7.86,0,0,0-2.85-.38c-5.93,0-11,3.61-11,10.78,0,7.62,4.39,10.93,10.24,10.93a11,11,0,0,0,3.62-.46Z" transform="translate(-317 -80.55)"/></g></g><polygon class="cls-6" points="18.34 396.95 10.71 311.45 94.48 311.45 86.85 396.94 52.55 406.45 18.34 396.95"/><polygon class="cls-7" points="52.4 398.98 80.12 391.29 86.64 318.24 52.4 318.24 52.4 398.98"/><polygon class="cls-8" points="52.4 348.77 65.55 348.77 66.46 338.59 52.4 338.59 52.4 328.42 52.43 328.42 77.72 328.42 77.47 331.12 75 358.95 52.4 358.95 52.4 348.77"/><polygon class="cls-9" points="52.4 377.24 52.35 377.26 40.67 374.1 39.93 365.74 34.25 365.74 29.4 365.74 30.87 382.2 52.35 388.17 52.4 388.15 52.4 377.24"/><polygon class="cls-8" points="65.36 358.95 64.09 372.99 52.4 376.15 52.4 387.06 73.89 381.1 74.06 379.33 75.88 358.95 65.36 358.95"/><polygon class="cls-9" points="52.4 328.42 52.4 334.74 52.4 338.57 52.4 338.59 27.85 338.59 27.85 338.59 27.81 338.59 27.61 336.31 27.14 331.15 26.9 328.42 52.4 328.42"/><polygon class="cls-9" points="52.4 348.77 52.4 355.1 52.4 358.93 52.4 358.95 41.24 358.95 41.24 358.95 41.2 358.95 41 356.66 40.54 351.5 40.3 348.77 52.4 348.77"/><polygon class="cls-10" points="449.15 382.65 441.29 294.45 527.7 294.45 519.83 382.64 484.44 392.45 449.15 382.65"/><polygon class="cls-11" points="485.79 384.74 514.38 376.81 521.11 301.45 485.79 301.45 485.79 384.74"/><polygon class="cls-9" points="485.79 332.95 472.22 332.95 471.28 322.45 485.79 322.45 485.79 311.95 485.75 311.95 459.67 311.95 459.92 314.75 462.48 343.45 485.79 343.45 485.79 332.95"/><polygon class="cls-9" points="485.79 362.32 485.74 362.33 473.69 359.08 472.92 350.45 467.06 350.45 462.06 350.45 463.57 367.43 485.74 373.59 485.79 373.57 485.79 362.32"/><polygon class="cls-8" points="485.79 332.95 485.79 343.45 498.71 343.45 497.5 357.07 485.79 360.23 485.79 371.15 507.31 365.19 507.47 363.41 509.94 335.77 510.19 332.95 507.36 332.95 485.79 332.95"/><polygon class="cls-8" points="485.79 311.95 485.79 318.47 485.79 322.43 485.79 322.45 511.11 322.45 511.11 322.45 511.15 322.45 511.36 320.09 511.84 314.77 512.09 311.95 485.79 311.95"/><rect class="cls-12" y="148.45" width="108" height="108"/><path d="M389.55,313.38a11.07,11.07,0,0,0,10,6.17c4.2,0,6.89-2.11,6.89-5,0-3.47-2.76-4.71-7.39-6.74l-2.54-1.08c-7.33-3.12-12.19-7-12.19-15.29,0-7.61,5.79-13.41,14.87-13.41a15,15,0,0,1,14.43,8.13l-7.94,5.07a6.88,6.88,0,0,0-6.51-4.35,4.4,4.4,0,0,0-4.83,3.95,2.69,2.69,0,0,0,0,.4c0,3,1.89,4.28,6.24,6.17l2.54,1.09c8.63,3.7,13.5,7.46,13.5,15.94,0,9.14-7.18,14.14-16.81,14.14a19.49,19.49,0,0,1-18.5-10.38Zm-35.85.87c1.59,2.83,3,5.22,6.53,5.22,3.33,0,5.44-1.3,3.06-6.37v-34h11.57v34.09c.95,10.51-5.22,15.29-14.2,15.29a15.76,15.76,0,0,1-15.23-9.26Z" transform="translate(-317 -80.55)"/><ellipse class="cls-13" cx="484.43" cy="198.34" rx="80.57" ry="42.39"/><ellipse class="cls-14" cx="484.43" cy="198.34" rx="77.42" ry="39.24"/><path class="cls-8" d="M817.11,291.55,821,271.78a10.08,10.08,0,0,0-2.14-9.89c-3.34-2.37-11.51-5.25-11.51-5.25h-6.66l2-10a1.28,1.28,0,0,0-1-1.5,1,1,0,0,0-.24,0h-9a1.25,1.25,0,0,0-1.23,1l-4.17,21.41a12,12,0,0,0-2.8-6.18,16.31,16.31,0,0,0-12.9-4.74H753.75a1.27,1.27,0,0,0-1.24,1l-8.45,43.49a1.29,1.29,0,0,0,1,1.51,1,1,0,0,0,.24,0h9.29a1.25,1.25,0,0,0,1.24-1l2-10.49h6.87s6.1,1.1,9,.26a17.79,17.79,0,0,0,6.62-4,20.62,20.62,0,0,0,3.91-4.86l-1.65,8.49a1.26,1.26,0,0,0,1,1.48c.08,0,.24,4.36.24,4.36h9.2s1.13-4.77,1.24-5.36l4.53-23.42h6.3c2.68.11,3.45.64,3.68.87s.58,1,.14,3.28l-3.65,18.79a1.26,1.26,0,0,0,1,1.47c.08,0,.24,4.36.24,4.36h9.32S817,292.13,817.11,291.55Zm-42.56-16.31a10.05,10.05,0,0,1-3.23,6.28c-2.26,1.41-4.91,2.06-7.56,3.9h-4.1l3-17.27h5.3c3.9,0,5.46.8,6.1,1.49A6.82,6.82,0,0,1,774.55,275.24Z" transform="translate(-317 -80.55)"/><path class="cls-8" d="M856.56,261.4a16.41,16.41,0,0,0-13-4.76H826a1.25,1.25,0,0,0-1.23,1l-8.45,43.49a1.28,1.28,0,0,0,1,1.51,1,1,0,0,0,.24,0h9.33a1.24,1.24,0,0,0,1.23-1l2-10.49h6.59A30.1,30.1,0,0,0,846,290a17.94,17.94,0,0,0,6.78-4.06,20.24,20.24,0,0,0,6.35-11.36A14.84,14.84,0,0,0,856.56,261.4Zm-9.79,13.84a10.05,10.05,0,0,1-3.23,6.28c-2.26,1.41-4.92,2.06-7.58,3.9h-4.09l3-17.27h5.3c3.89,0,5.46.79,6.09,1.49A6.79,6.79,0,0,1,846.77,275.24Z" transform="translate(-317 -80.55)"/><path class="cls-15" d="M767.91,268.14a9.16,9.16,0,0,1,6.82,1.89,7.46,7.46,0,0,1,.81,6.48,10.87,10.87,0,0,1-3.59,6.84,13.2,13.2,0,0,1-8.09,2.07h-5.47l3.36-17.27Zm-22.32,34.54h9l2.24-11.51h8.74a26.2,26.2,0,0,0,8-1,15.15,15.15,0,0,0,5.68-3.41,17.07,17.07,0,0,0,5.37-9.61,12.23,12.23,0,0,0-2.05-10.85,13.61,13.61,0,0,0-10.81-3.89h-18.3Z" transform="translate(-317 -80.55)"/><path class="cls-15" d="M791.93,250.89h9.45L799.1,262.4h8.72a14.76,14.76,0,0,1,9.83,2.48,8.24,8.24,0,0,1,1.62,8.06l-3.55,18.23h-9.1l3.46-17.79a4.83,4.83,0,0,0-.43-4.14,6.14,6.14,0,0,0-4.36-1.09h-7.61l-4.48,23h-9.12Z" transform="translate(-317 -80.55)"/><path class="cls-15" d="M840.13,268.14A9.16,9.16,0,0,1,847,270a7.46,7.46,0,0,1,.81,6.48,10.87,10.87,0,0,1-3.59,6.84,13.18,13.18,0,0,1-8.11,2.07H830.6L834,268.15Zm-22.32,34.54h9l2.24-11.51h8.74a26.2,26.2,0,0,0,8-1,15.15,15.15,0,0,0,5.68-3.41,17.07,17.07,0,0,0,5.37-9.61,12.2,12.2,0,0,0-2.05-10.85A13.61,13.61,0,0,0,844,262.4H825.64Z" transform="translate(-317 -80.55)"/><path class="cls-16" d="M630.17,324.38l0-.1-.09-.24a3.48,3.48,0,0,0-.72-1.07l-21.9-21.9a3.66,3.66,0,0,0-1.07-.72l-.23-.08-.11,0a3.72,3.72,0,0,0-.94-.18l-.11,0-.12,0H579.3a7.3,7.3,0,0,0-7.3,7.3v58.4a7.3,7.3,0,0,0,7.3,7.3h43.8a7.3,7.3,0,0,0,7.3-7.3V325.55a.5.5,0,0,0,0-.12l0-.11A3.81,3.81,0,0,0,630.17,324.38ZM604.85,307.3v18.25H623.1Zm-15.57,48.44a2.43,2.43,0,0,0-.54-1.72,5.76,5.76,0,0,0-1.92-1.23,9,9,0,0,1-3.67-2.49,5.45,5.45,0,0,1-1.12-3.4,5,5,0,0,1,1.52-3.8,5.81,5.81,0,0,1,6.65-.71,4.77,4.77,0,0,1,1.87,2.05,6.66,6.66,0,0,1,.66,3h-3.41a3.32,3.32,0,0,0-.51-2,1.69,1.69,0,0,0-1.46-.69,1.73,1.73,0,0,0-1.39.59,2.3,2.3,0,0,0-.5,1.57,2.06,2.06,0,0,0,.56,1.41,6.34,6.34,0,0,0,2,1.28,8.22,8.22,0,0,1,3.6,2.44,5.78,5.78,0,0,1,1.13,3.67,5.09,5.09,0,0,1-1.41,3.82,5.23,5.23,0,0,1-3.83,1.38,6.06,6.06,0,0,1-3-.75,5.33,5.33,0,0,1-2.12-2.14,6.79,6.79,0,0,1-.75-3.28h3.43a3.88,3.88,0,0,0,.57,2.36,2.21,2.21,0,0,0,1.86.73Q589.28,357.84,589.28,355.74Zm10.53,1.3,2.78-13.24h3.71l-4.76,18.25h-3.46l-4.73-18.25H597Zm17.38,2.19a5.81,5.81,0,0,0,2.26-1.69V351.1H615.8v5.76l-.93.22a2.59,2.59,0,0,1-1.56.43,2.33,2.33,0,0,1-2.16-1.1c-.43-.74-.65-1.92,1-3.54v-3.22c-1.64-1.54-1.43-2.67-1-3.38a2,2,0,0,1,1.9-1.06,2,2,0,0,1,1.59.62,5.85,5.85,0,0,1,.64,1.62h4.2a7.27,7.27,0,0,0-1.51-4.48,5,5,0,0,0-3.87-1.42,4.79,4.79,0,0,0-4.15,2,9.57,9.57,0,0,0-1.42,5.65v3.2a8.92,8.92,0,0,0,1.55,5.53,5.08,5.08,0,0,0,4.22,1.89A7.35,7.35,0,0,0,617.19,359.23Z" transform="translate(-317 -80.55)"/></svg>