<svg id="Layer_1" data-name="Layer 1" xmlns="http://www.w3.org/2000/svg" xmlns:xlink="http://www.w3.org/1999/xlink" viewBox="0 0 1070 128.45"><defs><style>.cls-1,.cls-8{fill:#fff;}.cls-1{stroke:#000;stroke-miterlimit:10;stroke-width:3px;}.cls-2{fill:#271302;}.cls-3{fill:#ff7c01;}.cls-4{fill:#302;}.cls-5{fill:#ff3efc;}.cls-6{fill:#1572b6;}.cls-7{fill:#33a9dc;}.cls-9{fill:#ebebeb;}.cls-10{fill:#e44f26;}.cls-11{fill:#f1662a;}.cls-12{fill:#f5de19;}.cls-13{fill:url(#radial-gradient);}.cls-14{fill:#6280b6;}.cls-15{fill:#000004;}.cls-16{fill-rule:evenodd;}</style><radialGradient id="radial-gradient" cx="769.71" cy="972.29" r="105.8" gradientTransform="matrix(1, 0, 0, -1, 187.52, 1010.14)" gradientUnits="userSpaceOnUse"><stop offset="0" stop-color="#fff"/><stop offset="0.5" stop-color="#4c6b96"/><stop offset="1" stop-color="#231f20"/></radialGradient></defs><path class="cls-1" d="M584.35,341.91" transform="translate(-126 -594.55)"/><rect class="cls-2" width="129.34" height="125.45" rx="28.76"/><rect class="cls-2" x="5.99" y="5.99" width="117.37" height="113.48" rx="22.77"/><path class="cls-3" d="M171.41,667.91,167.82,679a.8.8,0,0,1-.82.59h-9c-.53,0-.69-.3-.6-.76L172.59,635a14.18,14.18,0,0,0,.76-4.63.51.51,0,0,1,.46-.53H186c.38,0,.53.07.6.45l17.22,48.57c.15.38.08.68-.38.68h-10a.75.75,0,0,1-.82-.52L188.7,667.9Zm14.66-9.29c-1.53-5-4.6-14.32-6-19.76h-.08c-1.22,5.13-4,13.57-6,19.76Z" transform="translate(-126 -594.55)"/><path class="cls-3" d="M208.39,632a5.7,5.7,0,0,1,5.93-5.86,5.52,5.52,0,0,1,5.86,5.86,5.59,5.59,0,0,1-5.93,5.93A5.53,5.53,0,0,1,208.39,632Zm.55,10.73c0-.38.15-.6.59-.6h9.29c.46,0,.59.15.59.6V679.2c0,.45-.07.68-.67.68h-9.05c-.53,0-.75-.23-.75-.68Z" transform="translate(-126 -594.55)"/><g id="Layer_2" data-name="Layer 2"><g id="Layer_1-2" data-name="Layer 1-2"><rect class="cls-4" x="152" y="1.45" width="130.94" height="127" rx="29.12"/><rect class="cls-4" x="158.06" y="7.51" width="118.82" height="114.88" rx="23.05"/><path class="cls-5" d="M330,656.27l15.31,25.26a.53.53,0,0,1-.09.74.48.48,0,0,1-.3.11H334a1.28,1.28,0,0,1-1.31-.69c-3.39-6-6.81-12.06-10.28-18.4h0c-3.1,6.19-6.5,12.45-9.75,18.49a1,1,0,0,1-1.08.6h-10.4c-.54,0-.54-.46-.3-.77L315.71,657l-14.55-24.48a.46.46,0,0,1,.39-.77h10.91c.53,0,.77.07,1,.6,3.06,6.06,6.66,12.13,9.82,18.19h.07c3-6.14,6.37-12,9.52-18.19a1,1,0,0,1,1.08-.6h10c.54,0,.6.38.3.84Z" transform="translate(-126 -594.55)"/><path class="cls-5" d="M346.41,663.32c0-11,8.17-20.25,22.12-20.25.61,0,1.38.07,2.52.15V628.06a.49.49,0,0,1,.43-.54h9.72c.39,0,.46.16.46.47v45.49a44,44,0,0,0,.3,5.62c0,.38-.07.54-.53.69a37.89,37.89,0,0,1-15,3.08C355.11,682.87,346.41,676.4,346.41,663.32Zm24.64-11a7.86,7.86,0,0,0-2.85-.38c-5.93,0-11,3.61-11,10.78,0,7.62,4.39,10.93,10.24,10.93a11,11,0,0,0,3.62-.46Z" transform="translate(-126 -594.55)"/></g></g><polygon class="cls-6" points="321 113.16 311.13 2.45 419.58 2.45 409.7 113.14 365.29 125.45 321 113.16"/><polygon class="cls-7" points="365.1 115.77 400.99 105.82 409.43 11.24 365.1 11.24 365.1 115.77"/><polygon class="cls-8" points="365.1 50.77 382.13 50.77 383.31 37.59 365.1 37.59 365.1 24.42 365.15 24.42 397.88 24.42 397.57 27.92 394.36 63.95 365.1 63.95 365.1 50.77"/><polygon class="cls-9" points="365.1 87.63 365.04 87.65 349.92 83.56 348.95 72.74 341.6 72.74 335.32 72.74 337.22 94.06 365.04 101.78 365.1 101.76 365.1 87.63"/><polygon class="cls-8" points="381.88 63.95 380.24 82.13 365.1 86.22 365.1 100.35 392.93 92.63 393.14 90.34 395.5 63.95 381.88 63.95"/><polygon class="cls-9" points="365.1 24.42 365.1 32.6 365.1 37.56 365.1 37.59 333.31 37.59 333.31 37.59 333.27 37.59 333 34.63 332.4 27.95 332.09 24.42 365.1 24.42"/><polygon class="cls-9" points="365.1 50.77 365.1 58.96 365.1 63.92 365.1 63.95 350.65 63.95 350.65 63.95 350.61 63.95 350.35 60.99 349.75 54.31 349.43 50.77 365.1 50.77"/><polygon class="cls-10" points="464.77 113.06 454.82 1.45 564.16 1.45 554.2 113.04 509.43 125.45 464.77 113.06"/><polygon class="cls-11" points="511.13 115.69 547.31 105.67 555.82 10.31 511.13 10.31 511.13 115.69"/><polygon class="cls-9" points="511.13 50.17 493.96 50.17 492.78 36.88 511.13 36.88 511.13 23.59 511.08 23.59 478.08 23.59 478.4 27.13 481.63 63.45 511.13 63.45 511.13 50.17"/><polygon class="cls-9" points="511.13 87.32 511.07 87.34 495.82 83.22 494.85 72.31 487.44 72.31 481.11 72.31 483.02 93.8 511.07 101.58 511.13 101.56 511.13 87.32"/><polygon class="cls-8" points="511.13 50.17 511.13 63.45 527.49 63.45 525.95 80.68 511.13 84.68 511.13 98.5 538.37 90.95 538.56 88.71 541.68 53.73 542.01 50.17 538.43 50.17 511.13 50.17"/><polygon class="cls-8" points="511.13 23.59 511.13 31.85 511.13 36.85 511.13 36.88 543.18 36.88 543.18 36.88 543.22 36.88 543.49 33.9 544.09 27.16 544.41 23.59 511.13 23.59"/><rect class="cls-12" x="736" y="2.45" width="112" height="112"/><path d="M937.24,684.5a11.45,11.45,0,0,0,10.4,6.4c4.36,0,7.14-2.18,7.14-5.2,0-3.6-2.86-4.89-7.66-7l-2.63-1.13c-7.6-3.23-12.64-7.28-12.64-15.85,0-7.89,6-13.91,15.41-13.91a15.56,15.56,0,0,1,15,8.43L954,661.51a7.17,7.17,0,0,0-6.76-4.51,4.58,4.58,0,0,0-5,4.1c0,.14,0,.27,0,.41,0,3.16,1.95,4.44,6.47,6.4l2.63,1.13c9,3.84,14,7.74,14,16.53,0,9.48-7.44,14.67-17.44,14.67a20.22,20.22,0,0,1-19.18-10.76Zm-37.18.91c1.65,2.93,3.15,5.41,6.77,5.41,3.45,0,5.64-1.35,3.17-6.61V649h12v35.35c1,10.9-5.41,15.86-14.72,15.86a16.34,16.34,0,0,1-15.79-9.6Z" transform="translate(-126 -594.55)"/><ellipse class="cls-13" cx="989.43" cy="65.34" rx="80.57" ry="42.39"/><ellipse class="cls-14" cx="989.43" cy="65.34" rx="77.42" ry="39.24"/><path class="cls-8" d="M1131.11,672.55l3.84-19.77a10.08,10.08,0,0,0-2.14-9.89c-3.34-2.37-11.51-5.25-11.51-5.25h-6.66l1.95-10a1.28,1.28,0,0,0-1-1.5l-.24,0h-9a1.25,1.25,0,0,0-1.23,1l-4.17,21.41a12,12,0,0,0-2.8-6.18,16.31,16.31,0,0,0-12.9-4.74h-17.45a1.27,1.27,0,0,0-1.24,1l-8.45,43.49a1.29,1.29,0,0,0,1,1.51,1,1,0,0,0,.24,0h9.29a1.25,1.25,0,0,0,1.24-1l2-10.49h6.87s6.1,1.1,9,.26a17.79,17.79,0,0,0,6.62-4,20.62,20.62,0,0,0,3.91-4.86l-1.65,8.49a1.26,1.26,0,0,0,1,1.48c.08,0,.24,4.36.24,4.36h9.2s1.13-4.77,1.24-5.36l4.53-23.42h6.3c2.68.11,3.45.64,3.68.87s.58,1,.14,3.28l-3.65,18.79a1.26,1.26,0,0,0,1,1.47c.08,0,.24,4.36.24,4.36h9.32S1131,673.13,1131.11,672.55Zm-42.56-16.31a10.05,10.05,0,0,1-3.23,6.28c-2.26,1.41-4.91,2.06-7.56,3.9h-4.1l3-17.27h5.3c3.9,0,5.46.8,6.1,1.49A6.82,6.82,0,0,1,1088.55,656.24Z" transform="translate(-126 -594.55)"/><path class="cls-8" d="M1170.56,642.4a16.41,16.41,0,0,0-13-4.76H1140a1.25,1.25,0,0,0-1.23,1l-8.45,43.49a1.28,1.28,0,0,0,1,1.51,1,1,0,0,0,.24,0h9.33a1.24,1.24,0,0,0,1.23-1l2-10.49h6.59A30.1,30.1,0,0,0,1160,671a17.94,17.94,0,0,0,6.78-4.06,20.24,20.24,0,0,0,6.35-11.36A14.84,14.84,0,0,0,1170.56,642.4Zm-9.79,13.84a10.05,10.05,0,0,1-3.23,6.28c-2.26,1.41-4.92,2.06-7.58,3.9h-4.09l3-17.27h5.3c3.89,0,5.46.79,6.09,1.49A6.79,6.79,0,0,1,1160.77,656.24Z" transform="translate(-126 -594.55)"/><path class="cls-15" d="M1081.91,649.14a9.16,9.16,0,0,1,6.82,1.89,7.46,7.46,0,0,1,.81,6.48,10.87,10.87,0,0,1-3.59,6.84,13.2,13.2,0,0,1-8.09,2.07h-5.47l3.36-17.27Zm-22.32,34.54h9l2.24-11.51h8.74a26.2,26.2,0,0,0,8-1,15.15,15.15,0,0,0,5.68-3.41,17.07,17.07,0,0,0,5.37-9.61,12.23,12.23,0,0,0-2-10.85,13.61,13.61,0,0,0-10.81-3.89h-18.3Z" transform="translate(-126 -594.55)"/><path class="cls-15" d="M1105.93,631.89h9.45l-2.28,11.51h8.72a14.76,14.76,0,0,1,9.83,2.48,8.24,8.24,0,0,1,1.62,8.06l-3.55,18.23h-9.1l3.46-17.79a4.83,4.83,0,0,0-.43-4.14,6.14,6.14,0,0,0-4.36-1.09h-7.61l-4.48,23h-9.12Z" transform="translate(-126 -594.55)"/><path class="cls-15" d="M1154.13,649.14A9.16,9.16,0,0,1,1161,651a7.46,7.46,0,0,1,.81,6.48,10.87,10.87,0,0,1-3.59,6.84,13.18,13.18,0,0,1-8.11,2.07h-5.46l3.35-17.27Zm-22.32,34.54h9l2.24-11.51h8.74a26.2,26.2,0,0,0,8-1,15.15,15.15,0,0,0,5.68-3.41,17.07,17.07,0,0,0,5.37-9.61,12.2,12.2,0,0,0-2-10.85A13.61,13.61,0,0,0,1158,643.4h-18.33Z" transform="translate(-126 -594.55)"/><path class="cls-16" d="M825.22,635.41l-.06-.17c0-.13-.09-.26-.14-.39a6,6,0,0,0-1.19-1.78l-36.3-36.3a5.9,5.9,0,0,0-1.77-1.18,2.58,2.58,0,0,0-.39-.14l-.18-.06a6,6,0,0,0-1.56-.31l-.18,0a.71.71,0,0,0-.2,0H740.9a12.1,12.1,0,0,0-12.1,12.1v96.8A12.1,12.1,0,0,0,740.9,716h72.6a12.1,12.1,0,0,0,12.1-12.1V637.35a.71.71,0,0,0,0-.2,1,1,0,0,1,0-.18A6,6,0,0,0,825.22,635.41Zm-42-28.31v30.25H813.5Zm-25.82,80.29a4.1,4.1,0,0,0-.88-2.86,9.62,9.62,0,0,0-3.19-2,14.8,14.8,0,0,1-6.07-4.14,8.92,8.92,0,0,1-1.86-5.64,8.25,8.25,0,0,1,2.51-6.29,8.93,8.93,0,0,1,6.41-2.39,8.79,8.79,0,0,1,4.61,1.21,7.89,7.89,0,0,1,3.11,3.4,11,11,0,0,1,1.1,5h-5.66a5.45,5.45,0,0,0-.85-3.31,2.77,2.77,0,0,0-2.41-1.15,2.86,2.86,0,0,0-2.31,1,3.82,3.82,0,0,0-.83,2.61,3.4,3.4,0,0,0,.92,2.32,10.72,10.72,0,0,0,3.28,2.14,13.71,13.71,0,0,1,6,4,9.55,9.55,0,0,1,1.88,6.08,8.45,8.45,0,0,1-2.34,6.34,8.7,8.7,0,0,1-6.35,2.28,10.06,10.06,0,0,1-5-1.24,8.8,8.8,0,0,1-3.51-3.54,11.27,11.27,0,0,1-1.25-5.44h5.69a6.44,6.44,0,0,0,1,3.91,3.66,3.66,0,0,0,3.08,1.21Q757.43,690.87,757.43,687.39Zm17.46,2.15,4.61-21.94h6.16l-7.89,30.25H772l-7.83-30.25h6.12Zm28.81,3.64a9.72,9.72,0,0,0,3.75-2.81V679.7H801.4v9.55l-1.55.37a4.35,4.35,0,0,1-2.58.7,3.85,3.85,0,0,1-3.58-1.82c-.72-1.22-1.08-3.18,1.66-5.86V677.3c-2.71-2.56-2.37-4.43-1.71-5.6a3.35,3.35,0,0,1,3.16-1.76,3.19,3.19,0,0,1,2.63,1,9.8,9.8,0,0,1,1.06,2.68h7c-.23-3.37-1.06-5.84-2.51-7.42s-3.57-2.37-6.4-2.37a8,8,0,0,0-6.89,3.3q-2.35,3.27-2.35,9.36v5.3c.05,4,.9,7.06,2.56,9.16a8.45,8.45,0,0,0,7,3.13A12.32,12.32,0,0,0,803.7,693.18Z" transform="translate(-126 -594.55)"/></svg>